Coordinates
version=1
nRows=27
nColumns=12
inDegrees=yes

Units are S.I. units (second, meters, Newtons, ...)
Angles are in degrees

endheader
time	SC_y	SC_z	SC_x	AC_y	AC_z	AC_x	GH_y	GH_z	GH_yy	EL_x	PS_y
       0.0              -47.32          26.57          78.88          44.22        -0.8365          1.802         -85.38         -18.47         -146.0          105.0          80.52
   0.01242              -47.32          26.56          78.87          44.22        -0.8363            1.8         -85.38         -18.46         -146.0          105.0          80.51
   0.02483              -47.32          26.56          78.86          44.22        -0.8361          1.799         -85.37         -18.45         -146.0          105.0           80.5
   0.03725              -47.32          26.56          78.85          44.22        -0.8358          1.797         -85.36         -18.44         -146.0          104.9          80.49
   0.04966              -47.32          26.55          78.84          44.22        -0.8356          1.795         -85.35         -18.42         -146.0          104.9          80.48
   0.06208              -47.32          26.55          78.83          44.22        -0.8353          1.793         -85.34         -18.41         -146.0          104.9          80.47
   0.07449              -47.32          26.54          78.82          44.22         -0.835          1.791         -85.32         -18.39         -146.0          104.9          80.45
   0.08691              -47.32          26.54          78.81          44.22        -0.8347          1.789         -85.31         -18.37         -146.0          104.9          80.44
   0.09932              -47.32          26.53           78.8          44.23        -0.8344          1.787          -85.3         -18.35         -146.0          104.9          80.42
    0.1117              -47.32          26.53          78.78          44.23        -0.8341          1.784         -85.28         -18.33         -146.0          104.8          80.41
    0.1242              -47.32          26.52          78.77          44.23        -0.8337          1.781         -85.27         -18.31         -146.0          104.8          80.39
    0.1366              -47.32          26.51          78.75          44.23        -0.8333          1.778         -85.25         -18.29         -146.0          104.8          80.37
     0.149              -47.32          26.51          78.74          44.23        -0.8329          1.775         -85.23         -18.27         -146.0          104.8          80.35
    0.1614              -47.32           26.5          78.72          44.24        -0.8324          1.772         -85.21         -18.24         -146.0          104.8          80.33
    0.1738              -47.32          26.49           78.7          44.24        -0.8319          1.768         -85.19         -18.21         -146.0          104.7          80.31
    0.1862              -47.32          26.48          78.68          44.24        -0.8314          1.764         -85.17         -18.18         -146.0          104.7          80.29
    0.1986              -47.32          26.47          78.65          44.24        -0.8308           1.76         -85.14         -18.14         -146.0          104.7          80.26
    0.2111              -47.33          26.46          78.63          44.25        -0.8301          1.755         -85.12         -18.11         -146.0          104.6          80.23
    0.2235              -47.33          26.45           78.6          44.25        -0.8294           1.75         -85.09         -18.07         -146.0          104.6           80.2
    0.2359              -47.33          26.43          78.57          44.25        -0.8287          1.744         -85.06         -18.02         -145.9          104.6          80.16
    0.2483              -47.33          26.42          78.53          44.26        -0.8278          1.738         -85.02         -17.97         -145.9          104.5          80.12
    0.2607              -47.33           26.4           78.5          44.26        -0.8269          1.731         -84.98         -17.92         -145.9          104.5          80.08
    0.2731              -47.33          26.38          78.46          44.27        -0.8259          1.723         -84.94         -17.86         -145.9          104.4          80.03
    0.2856              -47.33          26.36          78.41          44.27        -0.8247          1.715         -84.89         -17.79         -145.9          104.3          79.98
     0.298              -47.33          26.34          78.36          44.28        -0.8235          1.706         -84.84         -17.72         -145.9          104.3          79.92
    0.3104              -47.33          26.32           78.3          44.29         -0.822          1.695         -84.78         -17.64         -145.9          104.2          79.86
    0.3228              -47.33          26.29          78.24          44.29        -0.8205          1.684         -84.71         -17.55         -145.9          104.1          79.79
